# xmcd CD database file
#
# Track frame offsets:
#	150
#	33142
#	51600
#	74230
#	92955
#	111707
#	128150
#	142882
#	159050
#	159695
#
# Disc length: 2356 seconds
#
# Revision: 0
# Processed by: cddbd v1.4PL0 Copyright (c) Steve Scherf et al.
# Submitted via: CdAid (MTCDDB.DLL V2003.01.23)
#
DISCID=9209320a
DTITLE=Celso Blues Boy - Vagabundo errante
DYEAR=2001
DGENRE=Blues
TTITLE0=Esquinas do tempo (blues do Rio)
TTITLE1=Trem da meia noite
TTITLE2=Marginal
TTITLE3=Último tango para Roy Buchanan
TTITLE4=Uirapuru
TTITLE5=Mundo insano
TTITLE6=Hey baby
TTITLE7=Saudades
TTITLE8=Vagabundo errante (vinheta)
TTITLE9=Vagabundo errante
EXTD=YEAR: 2001 ID3G:  17 
EXTT0=
EXTT1=
EXTT2=
EXTT3=
EXTT4=
EXTT5=
EXTT6=
EXTT7=
EXTT8=
EXTT9=
PLAYORDER=
